<?xml version="1.0" standalone="no"?>
<!DOCTYPE svg PUBLIC "-//W3C//DTD SVG 20010904//EN"
 "http://www.w3.org/TR/2001/REC-SVG-20010904/DTD/svg10.dtd">
<svg version="1.0" xmlns="http://www.w3.org/2000/svg"
 width="2973.000000pt" height="903.000000pt" viewBox="0 0 2973.000000 903.000000"
 preserveAspectRatio="xMidYMid meet">

<g transform="translate(0.000000,903.000000) scale(0.100000,-0.100000)"
fill="#000000" stroke="none">
<path d="M267 8734 c-4 -4 -7 -819 -7 -1811 l0 -1803 110 0 110 0 2 1562 3
1562 662 -1560 662 -1559 123 -3 124 -3 655 1557 654 1557 5 -1554 5 -1554
115 0 115 0 0 1805 0 1805 -134 0 -135 0 -697 -1630 c-384 -896 -701 -1636
-706 -1643 -5 -8 -261 585 -705 1630 l-697 1643 -128 3 c-71 1 -132 -1 -136
-4z"/>
<path d="M4985 8708 c-13 -29 -1265 -3577 -1265 -3585 0 -2 59 -2 132 -1 l132
3 128 370 c70 204 140 403 154 443 l26 72 842 0 842 0 160 -442 160 -443 132
-3 c73 -1 132 -1 132 2 0 6 -1288 3542 -1305 3583 l-14 33 -121 0 -120 0 -15
-32z m528 -1405 c213 -592 385 -1078 383 -1080 -1 -2 -347 -2 -767 -1 l-764 3
375 1077 c206 593 378 1078 381 1078 3 0 180 -485 392 -1077z"/>
<path d="M6790 6930 l0 -1810 125 0 125 0 0 450 0 450 418 0 c377 1 487 5 647
26 l51 6 339 -438 c187 -241 351 -451 365 -467 l25 -28 138 3 137 3 -384 500
-385 500 84 42 c254 126 481 358 604 616 83 174 119 328 127 542 5 126 3 169
-15 273 -96 560 -511 996 -1055 1107 -136 27 -305 35 -833 35 l-513 0 0 -1810z
m1342 1518 c185 -51 362 -151 494 -283 175 -174 279 -373 320 -611 21 -124 15
-322 -15 -439 -106 -426 -461 -754 -899 -830 -66 -12 -184 -15 -538 -15 l-454
0 0 1106 0 1105 498 -3 497 -4 97 -26z"/>
<path d="M9545 8728 c-3 -7 -4 -821 -3 -1808 l3 -1795 123 -3 122 -3 0 831 0
830 353 -1 352 0 629 -830 629 -829 139 0 c83 0 138 4 136 9 -1 6 -301 407
-666 892 l-662 881 33 47 c19 25 316 433 661 906 346 472 630 865 633 872 4
10 -23 13 -128 13 -74 0 -139 -4 -145 -8 -6 -4 -291 -391 -634 -859 l-623
-853 -353 0 -354 0 -2 858 -3 857 -118 3 c-88 2 -119 -1 -122 -10z"/>
<path d="M14962 8728 c-725 -40 -1363 -531 -1597 -1230 -145 -435 -118 -932
74 -1333 184 -385 460 -664 853 -861 482 -242 1085 -243 1583 -4 245 118 493
317 678 547 l57 70 0 422 0 421 -895 0 -895 0 0 -110 0 -110 775 0 775 0 0
-274 0 -275 -49 -58 c-197 -234 -437 -392 -741 -487 -279 -87 -592 -98 -866
-31 -496 120 -921 495 -1094 965 -122 330 -129 709 -19 1031 183 540 644 941
1203 1047 143 27 446 24 594 -6 250 -50 465 -156 694 -341 82 -66 231 -219
281 -289 l31 -42 35 32 c20 18 62 57 93 87 l57 55 -26 35 c-66 89 -198 232
-273 296 -377 324 -820 471 -1328 443z"/>
<path d="M17983 8728 c-8 -11 -263 -731 -1271 -3596 -3 -10 24 -12 128 -10
l133 3 153 440 152 440 844 3 843 2 160 -442 160 -443 134 -3 c105 -2 132 0
129 10 -3 7 -294 807 -648 1778 -353 971 -648 1780 -656 1798 l-13 32 -119 0
c-84 0 -122 -4 -129 -12z m519 -1425 c213 -593 386 -1079 384 -1080 -2 -2
-347 -2 -767 -1 l-765 3 375 1077 c207 593 378 1078 381 1078 3 0 180 -485
392 -1077z"/>
<path d="M19780 6930 l0 -1811 123 3 122 3 3 448 2 447 418 0 c376 1 487 5
647 26 l50 6 360 -465 360 -466 143 0 c79 -1 141 2 138 7 -2 4 -176 230 -385
502 l-380 494 97 51 c234 120 418 299 550 533 231 409 226 946 -12 1349 -202
342 -515 570 -890 647 -135 28 -304 36 -833 36 l-513 0 0 -1810z m1255 1535
c223 -39 424 -143 585 -305 203 -203 315 -455 327 -740 22 -492 -286 -935
-760 -1093 -155 -52 -214 -57 -704 -57 l-453 0 0 1105 0 1105 459 0 c365 0
476 -3 546 -15z"/>
<path d="M26160 6930 l0 -1810 125 0 125 0 -2 1808 -3 1807 -122 3 -123 3 0
-1811z"/>
<path d="M27973 8728 c-7 -10 -646 -1817 -1271 -3596 -3 -10 24 -12 128 -10
l133 3 153 440 152 440 844 3 843 2 160 -442 160 -443 134 -3 c105 -2 132 0
129 10 -3 7 -294 807 -648 1778 -353 971 -648 1780 -656 1798 l-13 32 -119 0
c-84 0 -122 -4 -129 -12z m519 -1425 c213 -593 386 -1079 384 -1080 -2 -2
-347 -2 -767 -1 l-765 3 376 1077 c206 593 377 1078 380 1078 3 0 180 -485
392 -1077z"/>
<path d="M24100 8720 c-399 -55 -752 -229 -1038 -513 -437 -431 -621 -1058
-492 -1675 72 -343 284 -707 551 -942 388 -343 854 -501 1361 -462 360 28 650
137 943 355 90 67 277 252 344 340 l44 58 -86 87 -86 86 -23 -29 c-264 -336
-611 -554 -1003 -632 -134 -27 -432 -23 -575 6 -314 65 -562 196 -794 420
-236 229 -391 524 -447 852 -27 160 -23 408 11 564 113 527 475 951 979 1146
290 112 645 131 956 49 320 -84 617 -279 827 -542 39 -49 73 -88 77 -88 4 0
43 37 89 83 l82 82 -64 85 c-82 109 -255 276 -376 363 -115 81 -340 195 -470
235 -186 59 -294 75 -530 78 -118 1 -244 -1 -280 -6z"/>
<path d="M11012 5120 c-141 -10 -325 -38 -458 -71 -770 -189 -1191 -728 -1144
-1461 14 -227 45 -359 122 -513 56 -112 112 -187 209 -280 138 -132 312 -234
538 -315 134 -48 233 -74 516 -134 759 -163 1028 -238 1242 -341 180 -88 251
-173 274 -329 24 -160 -36 -333 -152 -440 -154 -143 -457 -226 -822 -226 -621
0 -991 244 -1035 682 l-7 73 -480 0 -480 0 3 -85 c7 -183 62 -410 139 -579
214 -471 702 -778 1376 -866 621 -80 1185 -17 1595 180 419 201 678 503 782
911 83 325 60 697 -59 947 -103 216 -273 374 -546 508 -244 119 -291 133
-1209 350 -325 76 -627 151 -671 165 -204 67 -330 161 -374 279 -43 114 -36
287 15 388 135 266 545 403 1024 342 258 -32 439 -112 566 -248 90 -96 142
-205 173 -362 l16 -80 474 -3 c261 -1 478 1 482 5 4 5 3 49 -2 98 -77 765
-628 1275 -1503 1390 -145 18 -436 26 -604 15z"/>
<path d="M17845 5120 c-728 -66 -1268 -343 -1645 -845 -349 -465 -522 -1110
-482 -1797 32 -554 161 -973 417 -1358 389 -584 1043 -920 1789 -920 574 0
1010 186 1393 595 56 60 104 107 106 105 2 -3 25 -131 51 -285 27 -154 50
-283 53 -287 2 -5 152 -8 334 -8 l329 0 0 1265 0 1265 -1002 -2 -1003 -3 -3
-393 -2 -392 560 0 c308 0 560 -3 560 -7 0 -29 -56 -206 -88 -281 -133 -309
-362 -542 -645 -658 -157 -64 -246 -79 -467 -78 -271 0 -426 32 -636 129 -377
173 -617 543 -699 1075 -22 143 -31 522 -16 676 77 767 463 1257 1088 1380 65
13 136 18 273 18 166 -1 195 -3 281 -26 387 -104 687 -375 769 -695 l11 -43
501 0 500 0 -7 48 c-35 245 -123 482 -252 674 -306 459 -828 751 -1484 833
-150 18 -461 27 -584 15z"/>
<path d="M27440 5120 c-759 -51 -1292 -364 -1513 -890 -70 -167 -97 -317 -97
-540 0 -250 32 -421 110 -587 111 -237 292 -409 574 -543 170 -82 322 -130
616 -195 533 -117 620 -137 795 -182 496 -125 721 -242 785 -408 33 -84 33
-252 2 -339 -85 -232 -313 -366 -697 -411 -517 -60 -938 49 -1141 296 -83 102
-136 233 -151 374 l-8 70 -474 3 c-261 1 -478 -1 -482 -5 -11 -12 8 -211 32
-327 56 -276 169 -501 347 -687 277 -292 673 -461 1227 -525 213 -25 654 -25
825 -1 705 100 1182 409 1395 904 145 335 155 795 24 1108 -143 344 -497 584
-1079 730 -58 15 -377 91 -710 170 -618 146 -704 171 -823 233 -144 74 -208
161 -228 309 -35 245 100 454 360 559 321 130 825 106 1110 -52 77 -44 205
-168 243 -236 40 -72 68 -153 87 -248 l17 -85 480 0 479 0 -3 65 c-15 321
-153 654 -366 887 -266 289 -658 475 -1136 537 -146 19 -438 27 -600 16z"/>
<path d="M260 2665 l0 -2346 1148 4 c996 3 1160 6 1249 20 428 68 760 238
1038 529 358 375 569 903 625 1566 26 304 2 751 -55 1022 -172 819 -667 1349
-1400 1500 -205 42 -234 42 -1437 47 l-1168 4 0 -2346z m2211 1510 c299 -52
523 -222 658 -500 125 -255 175 -533 175 -975 0 -327 -28 -532 -105 -770 -135
-418 -395 -689 -737 -772 -82 -20 -119 -21 -654 -25 l-568 -4 0 1530 0 1531
574 0 c459 0 590 -3 657 -15z"/>
<path d="M5105 4998 c-3 -7 -4 -1061 -3 -2343 l3 -2330 1825 0 1825 0 3 413 2
412 -1335 0 -1335 0 0 605 0 605 1170 0 1170 0 0 415 0 415 -1170 0 -1170 0 0
495 0 495 1275 0 1275 0 0 415 0 415 -1765 0 c-1403 0 -1767 -3 -1770 -12z"/>
<path d="M13975 4998 c-3 -7 -4 -1061 -3 -2343 l3 -2330 500 0 500 0 0 2340 0
2340 -498 3 c-393 2 -499 0 -502 -10z"/>
<path d="M21105 4998 c-3 -7 -4 -1061 -3 -2343 l3 -2330 468 -3 467 -2 0 1670
c0 918 4 1670 8 1670 4 0 449 -750 988 -1667 l981 -1668 501 -3 502 -2 0 2345
0 2345 -467 -2 -468 -3 -3 -1627 c-1 -896 -5 -1628 -10 -1628 -4 1 -435 733
-958 1628 l-951 1627 -527 3 c-416 2 -528 0 -531 -10z"/>
</g>
</svg>
